<svg width="22" height="20" viewBox="0 0 22 20" fill="none" xmlns="http://www.w3.org/2000/svg">
<g clip-path="url(#clip0_2_14)">
<path d="M2.42847 10.6785L3.42935 8.95914L4.43024 7.23978C4.51946 7.08944 4.40696 6.89668 4.23239 6.89668H3.0453C4.29446 3.70856 7.40961 1.44179 11.0562 1.44179C14.7029 1.44179 17.5464 3.51581 18.8965 6.48419C19.0128 6.73863 19.2728 6.89668 19.5521 6.89668C20.0874 6.89668 20.4327 6.34541 20.2116 5.85968C18.6249 2.40555 15.1179 0 11.0562 0C6.59493 0 2.80865 2.899 1.48966 6.89668H0.228861C0.0504091 6.89668 -0.0582138 7.08558 0.0310121 7.23978L1.03189 8.95914L2.03278 10.6785C2.122 10.8288 2.34313 10.8288 2.42847 10.6785Z" fill="white"/>
<path d="M21.969 12.7641L20.9681 11.0409L19.9672 9.31766C19.878 9.16731 19.6607 9.16731 19.5754 9.31766L18.5745 11.0409L17.5736 12.7641C17.4883 12.9144 17.5969 13.1033 17.7715 13.1033H19.0749C17.8219 16.2914 14.7067 18.5582 11.0601 18.5582C7.4135 18.5582 4.56991 16.4842 3.21989 13.5158C3.1035 13.2614 2.84359 13.1033 2.56427 13.1033C2.02891 13.1033 1.68365 13.6546 1.90477 14.1403C3.49144 17.5944 6.99841 20 11.0601 20C15.5175 20 19.3077 17.101 20.6228 13.1033H21.775C21.9496 13.1033 22.0582 12.9144 21.9728 12.7641H21.969Z" fill="white"/>
</g>
<defs>
<clipPath id="clip0_2_14">
<rect width="22" height="20" fill="white"/>
</clipPath>
</defs>
</svg>
